<svg width="30" height="30" viewBox="0 0 30 30" fill="none" xmlns="http://www.w3.org/2000/svg">
<mask id="path-1-inside-1_512_224" fill="white">
<path d="M21.101 29.333H2.71244C2.19944 29.3325 1.70762 29.1574 1.34484 28.8461C0.982056 28.5349 0.777922 28.1128 0.777202 27.6726V7.73494H6.30078C7.01998 7.73432 7.70952 7.48889 8.2181 7.0525C8.72669 6.6161 9.01278 6.02439 9.0136 5.40719V0.666978H22.7153C23.2283 0.667419 23.7201 0.8425 24.0829 1.1538C24.4456 1.4651 24.6496 1.88718 24.6501 2.32742V20.4692C24.6501 20.5577 24.6911 20.6425 24.7639 20.705C24.8368 20.7676 24.9357 20.8027 25.0387 20.8027C25.1418 20.8027 25.2406 20.7676 25.3135 20.705C25.3864 20.6425 25.4273 20.5577 25.4273 20.4692V2.32742C25.4265 1.71037 25.1405 1.11879 24.6321 0.682465C24.1237 0.246143 23.4343 0.000706216 22.7153 1.03492e-07H8.62694C8.52394 -6.94835e-05 8.42513 0.0349556 8.3522 0.097379L0.11386 7.16734C0.0409783 7.22987 2.20094e-05 7.31468 0 7.40312V27.6726C0.000925824 28.2897 0.287063 28.8813 0.795638 29.3177C1.30421 29.754 1.99369 29.9994 2.71282 30H21.101C21.2041 30 21.3029 29.9649 21.3758 29.9023C21.4487 29.8398 21.4896 29.755 21.4896 29.6665C21.4896 29.5781 21.4487 29.4932 21.3758 29.4307C21.3029 29.3682 21.2041 29.333 21.101 29.333ZM23.8729 2.9944C23.8729 3.08284 23.832 3.16767 23.7591 3.23021C23.6862 3.29275 23.5874 3.32789 23.4843 3.32789C23.3813 3.32789 23.2824 3.29275 23.2095 3.23021C23.1367 3.16767 23.0957 3.08284 23.0957 2.9944V2.32742C23.0956 2.24086 23.0555 2.15787 22.9842 2.09666C22.9129 2.03545 22.8162 2.00102 22.7153 2.00093H21.8907C21.7876 2.00093 21.6888 1.9658 21.6159 1.90326C21.543 1.84072 21.5021 1.75589 21.5021 1.66744C21.5021 1.579 21.543 1.49417 21.6159 1.43163C21.6888 1.36909 21.7876 1.33396 21.8907 1.33396H22.7153C23.0222 1.33431 23.3164 1.43909 23.5334 1.62532C23.7504 1.81156 23.8725 2.06404 23.8729 2.32742V2.9944ZM23.8729 4.51244V8.72474C23.8729 8.81318 23.832 8.89801 23.7591 8.96055C23.6862 9.02309 23.5874 9.05823 23.4843 9.05823C23.3813 9.05823 23.2824 9.02309 23.2095 8.96055C23.1367 8.89801 23.0957 8.81318 23.0957 8.72474V4.51344C23.0957 4.42499 23.1367 4.34017 23.2095 4.27763C23.2824 4.21509 23.3813 4.17995 23.4843 4.17995C23.5874 4.17995 23.6862 4.21509 23.7591 4.27763C23.832 4.34017 23.8729 4.42499 23.8729 4.51344V4.51244ZM3.28679 13.6264H11.5317C11.6348 13.6264 11.7336 13.5912 11.8065 13.5287C11.8794 13.4661 11.9203 13.3813 11.9203 13.2929V9.43373C11.9203 9.34529 11.8794 9.26046 11.8065 9.19792C11.7336 9.13538 11.6348 9.10025 11.5317 9.10025H3.28679C3.18372 9.10025 3.08488 9.13538 3.01201 9.19792C2.93913 9.26046 2.89819 9.34529 2.89819 9.43373V13.2929C2.89819 13.3813 2.93913 13.4661 3.01201 13.5287C3.08488 13.5912 3.18372 13.6264 3.28679 13.6264ZM18.5506 15.2224C18.5506 15.3109 18.5097 15.3957 18.4368 15.4582C18.364 15.5208 18.2651 15.5559 18.162 15.5559H3.28679C3.18372 15.5559 3.08488 15.5208 3.01201 15.4582C2.93913 15.3957 2.89819 15.3109 2.89819 15.2224C2.89819 15.134 2.93913 15.0492 3.01201 14.9866C3.08488 14.9241 3.18372 14.8889 3.28679 14.8889H18.162C18.2651 14.8889 18.364 14.9241 18.4368 14.9866C18.5097 15.0492 18.5506 15.134 18.5506 15.2224ZM2.89819 17.1523C2.89819 17.0639 2.93913 16.9791 3.01201 16.9165C3.08488 16.854 3.18372 16.8188 3.28679 16.8188H12.513C12.616 16.8188 12.7149 16.854 12.7877 16.9165C12.8606 16.9791 12.9016 17.0639 12.9016 17.1523C12.9016 17.2408 12.8606 17.3256 12.7877 17.3881C12.7149 17.4507 12.616 17.4858 12.513 17.4858H3.28679C3.18372 17.4858 3.08488 17.4507 3.01201 17.3881C2.93913 17.3256 2.89819 17.2408 2.89819 17.1523ZM18.162 19.4154H3.28679C3.18372 19.4154 3.08488 19.3803 3.01201 19.3177C2.93913 19.2552 2.89819 19.1704 2.89819 19.0819C2.89819 18.9935 2.93913 18.9086 3.01201 18.8461C3.08488 18.7836 3.18372 18.7484 3.28679 18.7484H18.162C18.2651 18.7484 18.364 18.7836 18.4368 18.8461C18.5097 18.9086 18.5506 18.9935 18.5506 19.0819C18.5506 19.1704 18.5097 19.2552 18.4368 19.3177C18.364 19.3803 18.2651 19.4154 18.162 19.4154ZM12.513 20.6783C12.616 20.6783 12.7149 20.7135 12.7877 20.776C12.8606 20.8385 12.9016 20.9234 12.9016 21.0118C12.9016 21.1003 12.8606 21.1851 12.7877 21.2476C12.7149 21.3102 12.616 21.3453 12.513 21.3453H3.28679C3.18372 21.3453 3.08488 21.3102 3.01201 21.2476C2.93913 21.1851 2.89819 21.1003 2.89819 21.0118C2.89819 20.9234 2.93913 20.8385 3.01201 20.776C3.08488 20.7135 3.18372 20.6783 3.28679 20.6783H12.513ZM25.0399 21.4847C24.0586 21.4845 23.0993 21.734 22.2832 22.2017C21.4672 22.6695 20.8311 23.3344 20.4555 24.1123C20.0798 24.8903 19.9813 25.7464 20.1726 26.5724C20.364 27.3983 20.8364 28.1571 21.5302 28.7526C22.224 29.3482 23.108 29.7538 24.0704 29.9181C25.0328 30.0825 26.0304 29.9982 26.9371 29.676C27.8437 29.3538 28.6186 28.8081 29.1638 28.1079C29.709 27.4077 30 26.5845 30 25.7423C29.9985 24.6136 29.4753 23.5314 28.5452 22.7332C27.6151 21.935 26.3541 21.486 25.0387 21.4847H25.0399ZM27.6758 24.4814L24.3016 27.3774C24.2287 27.44 24.1299 27.4751 24.0268 27.4751C23.9238 27.4751 23.8249 27.44 23.7521 27.3774L22.4029 26.2206C22.3321 26.1577 22.2929 26.0734 22.2938 25.986C22.2947 25.8986 22.3355 25.8149 22.4076 25.7531C22.4796 25.6912 22.5771 25.6562 22.679 25.6554C22.7809 25.6547 22.879 25.6883 22.9523 25.749L24.0256 26.6701L27.1244 24.0099C27.1976 23.9491 27.2958 23.9155 27.3977 23.9163C27.4996 23.917 27.5971 23.9521 27.6691 24.0139C27.7412 24.0758 27.782 24.1594 27.7829 24.2468C27.7838 24.3343 27.7446 24.4185 27.6738 24.4814H27.6758Z"/>
</mask>
<path d="M21.101 29.333H2.71244C2.19944 29.3325 1.70762 29.1574 1.34484 28.8461C0.982056 28.5349 0.777922 28.1128 0.777202 27.6726V7.73494H6.30078C7.01998 7.73432 7.70952 7.48889 8.2181 7.0525C8.72669 6.6161 9.01278 6.02439 9.0136 5.40719V0.666978H22.7153C23.2283 0.667419 23.7201 0.8425 24.0829 1.1538C24.4456 1.4651 24.6496 1.88718 24.6501 2.32742V20.4692C24.6501 20.5577 24.6911 20.6425 24.7639 20.705C24.8368 20.7676 24.9357 20.8027 25.0387 20.8027C25.1418 20.8027 25.2406 20.7676 25.3135 20.705C25.3864 20.6425 25.4273 20.5577 25.4273 20.4692V2.32742C25.4265 1.71037 25.1405 1.11879 24.6321 0.682465C24.1237 0.246143 23.4343 0.000706216 22.7153 1.03492e-07H8.62694C8.52394 -6.94835e-05 8.42513 0.0349556 8.3522 0.097379L0.11386 7.16734C0.0409783 7.22987 2.20094e-05 7.31468 0 7.40312V27.6726C0.000925824 28.2897 0.287063 28.8813 0.795638 29.3177C1.30421 29.754 1.99369 29.9994 2.71282 30H21.101C21.2041 30 21.3029 29.9649 21.3758 29.9023C21.4487 29.8398 21.4896 29.755 21.4896 29.6665C21.4896 29.5781 21.4487 29.4932 21.3758 29.4307C21.3029 29.3682 21.2041 29.333 21.101 29.333ZM23.8729 2.9944C23.8729 3.08284 23.832 3.16767 23.7591 3.23021C23.6862 3.29275 23.5874 3.32789 23.4843 3.32789C23.3813 3.32789 23.2824 3.29275 23.2095 3.23021C23.1367 3.16767 23.0957 3.08284 23.0957 2.9944V2.32742C23.0956 2.24086 23.0555 2.15787 22.9842 2.09666C22.9129 2.03545 22.8162 2.00102 22.7153 2.00093H21.8907C21.7876 2.00093 21.6888 1.9658 21.6159 1.90326C21.543 1.84072 21.5021 1.75589 21.5021 1.66744C21.5021 1.579 21.543 1.49417 21.6159 1.43163C21.6888 1.36909 21.7876 1.33396 21.8907 1.33396H22.7153C23.0222 1.33431 23.3164 1.43909 23.5334 1.62532C23.7504 1.81156 23.8725 2.06404 23.8729 2.32742V2.9944ZM23.8729 4.51244V8.72474C23.8729 8.81318 23.832 8.89801 23.7591 8.96055C23.6862 9.02309 23.5874 9.05823 23.4843 9.05823C23.3813 9.05823 23.2824 9.02309 23.2095 8.96055C23.1367 8.89801 23.0957 8.81318 23.0957 8.72474V4.51344C23.0957 4.42499 23.1367 4.34017 23.2095 4.27763C23.2824 4.21509 23.3813 4.17995 23.4843 4.17995C23.5874 4.17995 23.6862 4.21509 23.7591 4.27763C23.832 4.34017 23.8729 4.42499 23.8729 4.51344V4.51244ZM3.28679 13.6264H11.5317C11.6348 13.6264 11.7336 13.5912 11.8065 13.5287C11.8794 13.4661 11.9203 13.3813 11.9203 13.2929V9.43373C11.9203 9.34529 11.8794 9.26046 11.8065 9.19792C11.7336 9.13538 11.6348 9.10025 11.5317 9.10025H3.28679C3.18372 9.10025 3.08488 9.13538 3.01201 9.19792C2.93913 9.26046 2.89819 9.34529 2.89819 9.43373V13.2929C2.89819 13.3813 2.93913 13.4661 3.01201 13.5287C3.08488 13.5912 3.18372 13.6264 3.28679 13.6264ZM18.5506 15.2224C18.5506 15.3109 18.5097 15.3957 18.4368 15.4582C18.364 15.5208 18.2651 15.5559 18.162 15.5559H3.28679C3.18372 15.5559 3.08488 15.5208 3.01201 15.4582C2.93913 15.3957 2.89819 15.3109 2.89819 15.2224C2.89819 15.134 2.93913 15.0492 3.01201 14.9866C3.08488 14.9241 3.18372 14.8889 3.28679 14.8889H18.162C18.2651 14.8889 18.364 14.9241 18.4368 14.9866C18.5097 15.0492 18.5506 15.134 18.5506 15.2224ZM2.89819 17.1523C2.89819 17.0639 2.93913 16.9791 3.01201 16.9165C3.08488 16.854 3.18372 16.8188 3.28679 16.8188H12.513C12.616 16.8188 12.7149 16.854 12.7877 16.9165C12.8606 16.9791 12.9016 17.0639 12.9016 17.1523C12.9016 17.2408 12.8606 17.3256 12.7877 17.3881C12.7149 17.4507 12.616 17.4858 12.513 17.4858H3.28679C3.18372 17.4858 3.08488 17.4507 3.01201 17.3881C2.93913 17.3256 2.89819 17.2408 2.89819 17.1523ZM18.162 19.4154H3.28679C3.18372 19.4154 3.08488 19.3803 3.01201 19.3177C2.93913 19.2552 2.89819 19.1704 2.89819 19.0819C2.89819 18.9935 2.93913 18.9086 3.01201 18.8461C3.08488 18.7836 3.18372 18.7484 3.28679 18.7484H18.162C18.2651 18.7484 18.364 18.7836 18.4368 18.8461C18.5097 18.9086 18.5506 18.9935 18.5506 19.0819C18.5506 19.1704 18.5097 19.2552 18.4368 19.3177C18.364 19.3803 18.2651 19.4154 18.162 19.4154ZM12.513 20.6783C12.616 20.6783 12.7149 20.7135 12.7877 20.776C12.8606 20.8385 12.9016 20.9234 12.9016 21.0118C12.9016 21.1003 12.8606 21.1851 12.7877 21.2476C12.7149 21.3102 12.616 21.3453 12.513 21.3453H3.28679C3.18372 21.3453 3.08488 21.3102 3.01201 21.2476C2.93913 21.1851 2.89819 21.1003 2.89819 21.0118C2.89819 20.9234 2.93913 20.8385 3.01201 20.776C3.08488 20.7135 3.18372 20.6783 3.28679 20.6783H12.513ZM25.0399 21.4847C24.0586 21.4845 23.0993 21.734 22.2832 22.2017C21.4672 22.6695 20.8311 23.3344 20.4555 24.1123C20.0798 24.8903 19.9813 25.7464 20.1726 26.5724C20.364 27.3983 20.8364 28.1571 21.5302 28.7526C22.224 29.3482 23.108 29.7538 24.0704 29.9181C25.0328 30.0825 26.0304 29.9982 26.9371 29.676C27.8437 29.3538 28.6186 28.8081 29.1638 28.1079C29.709 27.4077 30 26.5845 30 25.7423C29.9985 24.6136 29.4753 23.5314 28.5452 22.7332C27.6151 21.935 26.3541 21.486 25.0387 21.4847H25.0399ZM27.6758 24.4814L24.3016 27.3774C24.2287 27.44 24.1299 27.4751 24.0268 27.4751C23.9238 27.4751 23.8249 27.44 23.7521 27.3774L22.4029 26.2206C22.3321 26.1577 22.2929 26.0734 22.2938 25.986C22.2947 25.8986 22.3355 25.8149 22.4076 25.7531C22.4796 25.6912 22.5771 25.6562 22.679 25.6554C22.7809 25.6547 22.879 25.6883 22.9523 25.749L24.0256 26.6701L27.1244 24.0099C27.1976 23.9491 27.2958 23.9155 27.3977 23.9163C27.4996 23.917 27.5971 23.9521 27.6691 24.0139C27.7412 24.0758 27.782 24.1594 27.7829 24.2468C27.7838 24.3343 27.7446 24.4185 27.6738 24.4814H27.6758Z" fill="#F1841D" stroke="#F1841D" stroke-width="2" mask="url(#path-1-inside-1_512_224)"/>
</svg>
